# xmcd
#
# Track frame offsets: 
#        150
#        17670
#        39867
#        51265
#        66207
#        85765
#        102757
#        120777
#        133135
#        148167
#
# Disc length: 2327 seconds
#
# Revision: 4
# Processed by: cddbd v1.5.2PL0 Copyright (c) Steve Scherf et al.
# Submitted via: ExactAudioCopy v1.0b1
#
DISCID=7e09150a
DTITLE=オフコース - FAIRWAY
DYEAR=1978
DGENRE=JPop
TTITLE0=あなたのすべて
TTITLE1=美しい思い出に
TTITLE2=いつもふたり
TTITLE3=夢
TTITLE4=この空にはばたく前に
TTITLE5=夏の終り
TTITLE6=季節は流れて
TTITLE7=失恋のすすめ
TTITLE8=去っていった友へ－Ｔ氏に捧げる－
TTITLE9=心さみしい人よ
EXTD=YEAR: 1993
EXTT0=
EXTT1=
EXTT2=
EXTT3=
EXTT4=
EXTT5=
EXTT6=
EXTT7=
EXTT8=
EXTT9=
PLAYORDER=
